<svg width="20" height="20" viewBox="0 0 16 15" fill="none" xmlns="http://www.w3.org/2000/svg">
<path d="M15.2 5.52632H4V3.15789C4 2.28711 4.7176 1.57895 5.6 1.57895C6.4824 1.57895 7.2 2.28711 7.2 3.15789H8.8C8.8 1.41632 7.3648 0 5.6 0C3.8352 0 2.4 1.41632 2.4 3.15789V5.52632H0.8C0.587827 5.52632 0.384344 5.60949 0.234315 5.75755C0.0842854 5.9056 0 6.10641 0 6.31579V7.89474C0 9.95211 1.3392 11.7024 3.2 12.3553V15H4.8V12.6316H11.2V15H12.8V12.3553C14.6608 11.7024 16 9.95211 16 7.89474V6.31579C16 6.10641 15.9157 5.9056 15.7657 5.75755C15.6157 5.60949 15.4122 5.52632 15.2 5.52632ZM14.4 7.89474C14.4 9.63632 12.9648 11.0526 11.2 11.0526H4.8C3.0352 11.0526 1.6 9.63632 1.6 7.89474V7.10526H14.4V7.89474Z" fill="#FFE801"/>
</svg>
