<svg width="16" height="15" viewBox="0 0 16 15" fill="none" xmlns="http://www.w3.org/2000/svg">
<path d="M14.7719 5.27352C14.3575 4.99126 13.8397 4.78602 13.2694 4.67318C13.1733 4.65346 13.0847 4.60396 13.0146 4.53082C12.9445 4.45767 12.8959 4.36409 12.875 4.26168C12.6294 3.10619 12.1062 2.11443 11.3391 1.36275C10.4422 0.483825 9.25656 0 8 0C6.89531 0 5.875 0.370988 5.05094 1.07145C4.49438 1.54689 4.04608 2.15179 3.74 2.84034C3.70595 2.91798 3.65505 2.98576 3.59155 3.03801C3.52805 3.09026 3.4538 3.12546 3.375 3.14068C2.52719 3.30474 1.79594 3.6322 1.23719 4.10163C0.428125 4.78233 0 5.74429 0 6.88404C0 9.14078 1.74781 10.7145 4.25 10.7145H7.5V6.44374C7.5 6.15546 7.70687 5.90802 7.97594 5.89362C8.04354 5.89013 8.1111 5.90139 8.17453 5.9267C8.23796 5.95201 8.29593 5.99086 8.34492 6.04089C8.39392 6.09091 8.43293 6.15108 8.45959 6.21774C8.48625 6.2844 8.49999 6.35616 8.5 6.42868V10.7145H12.375C14.645 10.7145 16 9.56801 16 7.64745C16 6.64129 15.5753 5.8203 14.7719 5.27352Z" fill="#FFE801"/>
<path d="M7.5 13.1728L6.35313 11.946C6.2588 11.848 6.1323 11.7938 6.00096 11.795C5.86962 11.7961 5.74399 11.8526 5.65121 11.9523C5.55844 12.0519 5.50598 12.1866 5.50517 12.3273C5.50436 12.4681 5.55526 12.6035 5.64687 12.7043L7.64687 14.8435C7.74061 14.9437 7.8676 15 8 15C8.1324 15 8.25939 14.9437 8.35312 14.8435L10.3531 12.7043C10.4447 12.6035 10.4956 12.4681 10.4948 12.3273C10.494 12.1866 10.4416 12.0519 10.3488 11.9523C10.256 11.8526 10.1304 11.7961 9.99904 11.795C9.8677 11.7938 9.7412 11.848 9.64688 11.946L8.5 13.1728V10.7145H7.5V13.1728Z" fill="#FFE801"/>
</svg>
