<svg width="25" height="25" viewBox="0 0 25 25" fill="none" xmlns="http://www.w3.org/2000/svg">
<path d="M16.4062 12.5C16.4062 13.536 15.9947 14.5296 15.2621 15.2621C14.5296 15.9947 13.536 16.4062 12.5 16.4062C11.464 16.4062 10.4704 15.9947 9.73786 15.2621C9.0053 14.5296 8.59375 13.536 8.59375 12.5C8.59375 12.2773 8.61719 12.0599 8.65755 11.849H7.29167V17.0534C7.29167 17.4154 7.58463 17.7083 7.94661 17.7083H17.0547C17.2282 17.708 17.3944 17.6388 17.517 17.516C17.6395 17.3933 17.7083 17.2269 17.7083 17.0534V11.849H16.3424C16.3828 12.0599 16.4062 12.2773 16.4062 12.5ZM12.5 15.1042C12.8421 15.1041 13.1808 15.0366 13.4968 14.9056C13.8128 14.7747 14.0999 14.5827 14.3417 14.3408C14.5835 14.0988 14.7753 13.8116 14.9061 13.4956C15.037 13.1795 15.1043 12.8408 15.1042 12.4987C15.1041 12.1566 15.0366 11.8179 14.9056 11.5019C14.7747 11.1859 14.5827 10.8988 14.3408 10.657C14.0988 10.4152 13.8116 10.2234 13.4956 10.0926C13.1795 9.96174 12.8408 9.89445 12.4987 9.89453C11.8079 9.8947 11.1454 10.1693 10.657 10.6579C10.1686 11.1465 9.89436 11.8092 9.89453 12.5C9.8947 13.1908 10.1693 13.8533 10.6579 14.3417C11.1465 14.8301 11.8092 15.1043 12.5 15.1042ZM15.625 9.76562H17.1862C17.2899 9.76562 17.3894 9.72451 17.4629 9.65129C17.5363 9.57807 17.5778 9.47872 17.5781 9.375V7.8138C17.5781 7.70986 17.5368 7.61017 17.4633 7.53667C17.3898 7.46317 17.2901 7.42187 17.1862 7.42187H15.625C15.5211 7.42187 15.4214 7.46317 15.3479 7.53667C15.2744 7.61017 15.2331 7.70986 15.2331 7.8138V9.375C15.2344 9.58984 15.4102 9.76562 15.625 9.76562ZM12.5 0C9.18479 0 6.00537 1.31696 3.66116 3.66116C1.31696 6.00537 0 9.18479 0 12.5C0 15.8152 1.31696 18.9946 3.66116 21.3388C6.00537 23.683 9.18479 25 12.5 25C14.1415 25 15.767 24.6767 17.2835 24.0485C18.8001 23.4203 20.1781 22.4996 21.3388 21.3388C22.4996 20.1781 23.4203 18.8001 24.0485 17.2835C24.6767 15.767 25 14.1415 25 12.5C25 10.8585 24.6767 9.23303 24.0485 7.71646C23.4203 6.19989 22.4996 4.8219 21.3388 3.66116C20.1781 2.50043 18.8001 1.57969 17.2835 0.951506C15.767 0.323322 14.1415 0 12.5 0ZM19.0104 17.5638C19.0104 18.3594 18.3594 19.0104 17.5638 19.0104H7.4362C6.64062 19.0104 5.98958 18.3594 5.98958 17.5638V7.4362C5.98958 6.64062 6.64062 5.98958 7.4362 5.98958H17.5638C18.3594 5.98958 19.0104 6.64062 19.0104 7.4362V17.5638Z" fill="black"/>
</svg>
