<svg width="25" height="25" viewBox="0 0 25 25" fill="none" xmlns="http://www.w3.org/2000/svg">
<path d="M12.5 0C5.59635 0 0 5.59635 0 12.5C0 19.4036 5.59635 25 12.5 25C19.4036 25 25 19.4036 25 12.5C25 5.59635 19.4036 0 12.5 0ZM11.7799 17.8659C10.9948 18.2474 10.1497 18.2878 9.82292 18.2878H9.72526H9.65495C9.14453 18.2878 6.60417 18.1706 6.60417 15.8568C6.60417 13.5833 9.37109 13.4049 10.2187 13.4049H10.2409C9.7513 12.7513 9.85286 12.0924 9.85286 12.0924C9.79217 12.096 9.73137 12.0977 9.67057 12.0977C9.35156 12.0977 8.73568 12.0469 8.20703 11.7057C7.55859 11.2891 7.23047 10.5794 7.23047 9.59766C7.23047 6.82292 10.2604 6.71094 10.2904 6.70833H13.3164V6.77474C13.3164 7.11328 12.7083 7.17969 12.2943 7.23568C12.1536 7.25651 11.8711 7.28385 11.7917 7.32422C12.5586 7.73437 12.6823 8.3776 12.6823 9.33594C12.6823 10.4271 12.2552 11.0039 11.8021 11.4089C11.5208 11.6602 11.3008 11.8568 11.3008 12.1211C11.3008 12.3802 11.6029 12.6445 11.9544 12.9531C12.5286 13.4596 13.3164 14.1484 13.3164 15.3112C13.3164 16.513 12.7995 17.3724 11.7799 17.8659ZM18.3594 12.5H16.4062V14.4531H15.1042V12.5H13.151V11.1979H15.1042V9.24479H16.4062V11.1979H18.3594V12.5ZM10.1862 13.9974C10.118 13.9974 10.0498 14 9.98177 14.0052C9.42872 14.0371 8.90196 14.2519 8.48437 14.6159C8.10156 14.9622 7.90625 15.3997 7.93359 15.8411C7.99219 16.7669 8.98568 17.3086 10.1927 17.2227C11.3802 17.1367 12.1719 16.4518 12.1146 15.526C12.0599 14.6562 11.3034 13.9974 10.1862 13.9974ZM11.3242 8.96484C11.0091 7.85807 10.5013 7.52995 9.71224 7.52995C9.62686 7.53057 9.54194 7.54239 9.45963 7.5651C9.11719 7.66276 8.84505 7.94792 8.69401 8.3724C8.53906 8.80208 8.52995 9.25 8.66276 9.76042C8.90365 10.6732 9.55208 11.3346 10.2057 11.3346C10.2912 11.3355 10.3763 11.3236 10.4583 11.2995C11.1732 11.099 11.6211 10.0078 11.3242 8.96484Z" fill="black"/>
</svg>
