<svg width="20" height="20" viewBox="0 0 23 19" fill="none" xmlns="http://www.w3.org/2000/svg">
<path d="M4.23077 8.65C3.37469 8.65266 2.5544 9.01173 1.94907 9.64878C1.34373 10.2858 1.00253 11.1491 1 12.05V18V17.575C1.00093 17.2372 1.12888 16.9134 1.35588 16.6745C1.58289 16.4356 1.89051 16.301 2.21154 16.3H20.7885C21.1095 16.301 21.4171 16.4356 21.6441 16.6745C21.8711 16.9134 21.9991 17.2372 22 17.575V18V12.05C21.9975 11.1491 21.6563 10.2858 21.0509 9.64878C20.4456 9.01173 19.6253 8.65266 18.7692 8.65M4.23077 8.65H18.7692M4.23077 8.65V7.8C4.23197 7.34952 4.40254 6.91785 4.70523 6.59931C5.00791 6.28077 5.4181 6.10126 5.84615 6.1H9.88462C10.3127 6.10126 10.7229 6.28077 11.0255 6.59931C11.3282 6.91785 11.4988 7.34952 11.5 7.8M18.7692 8.65V7.8C18.768 7.34952 18.5975 6.91785 18.2948 6.59931C17.9921 6.28077 17.5819 6.10126 17.1538 6.1H13.1154C12.6873 6.10126 12.2771 6.28077 11.9745 6.59931C11.6718 6.91785 11.5012 7.34952 11.5 7.8M11.5 7.8V8.65M3.42308 8.65V3.125C3.42467 2.56193 3.63793 2.02241 4.01626 1.62426C4.39459 1.2261 4.90727 1.00168 5.44231 1H17.5577C18.0927 1.00168 18.6054 1.2261 18.9837 1.62426C19.3621 2.02241 19.5753 2.56193 19.5769 3.125V8.65H3.42308Z" stroke="#FFE801" stroke-linecap="round" stroke-linejoin="round"/>
</svg>
