<svg width="59" height="60" viewBox="0 0 59 60" fill="none" xmlns="http://www.w3.org/2000/svg">
<g filter="url(#filter0_f)">
<path d="M6 53.2019L9.32098 41.0845C7.27903 37.5388 6.19068 33.511 6.20191 29.3934C6.20191 16.4905 16.7036 6 29.6066 6C35.8671 6 41.7464 8.43474 46.1559 12.8553C50.5764 17.2758 53.0112 23.1551 53 29.4046C53 42.3074 42.4981 52.7981 29.5953 52.7981H29.5841C25.6684 52.7981 21.8199 51.8108 18.3979 49.9481L6 53.2019ZM18.9813 45.707L19.6881 46.1334C22.6727 47.9061 26.0947 48.8373 29.5841 48.8485H29.5953C40.3103 48.8485 49.0392 40.1307 49.0392 29.4046C49.0392 24.2097 47.0197 19.3292 43.3508 15.6489C39.682 11.9689 34.79 9.94936 29.5953 9.94936C18.8691 9.94936 10.14 18.6672 10.14 29.3932C10.14 33.0623 11.161 36.6413 13.1133 39.7381L13.5733 40.4786L11.61 47.6481L18.9813 45.707Z" fill="black" fill-opacity="0.24"/>
</g>
<path d="M7.06165 51.9511L10.2307 40.394C8.27656 37.0041 7.24861 33.1598 7.25001 29.2471C7.25001 16.9475 17.267 6.9418 29.5551 6.9418C35.5276 6.9418 41.1234 9.26872 45.3339 13.4792C49.5444 17.6899 51.8605 23.2968 51.8605 29.2581C51.8605 41.5574 41.8436 51.5632 29.5553 51.5632H29.5442C25.8099 51.5632 22.1422 50.6214 18.8846 48.8485L7.06165 51.9513V51.9511Z" fill="url(#paint0_linear)"/>
<path d="M6.25293 52.7599L9.53268 40.793C7.51608 37.2916 6.4411 33.3136 6.45232 29.2471C6.45232 16.5044 16.8237 6.14404 29.5666 6.14404C35.7494 6.14404 41.5554 8.54839 45.9103 12.9142C50.2759 17.2799 52.6805 23.0862 52.6694 29.2581C52.6694 42.0008 42.298 52.3611 29.5552 52.3611H29.5443C25.6847 52.3596 21.8868 51.392 18.4969 49.5466L6.25293 52.7601V52.7599ZM19.073 45.3581L19.7711 45.7792C22.7186 47.53 26.0981 48.4497 29.5443 48.4608H29.5554C40.1372 48.4608 48.758 39.8512 48.758 29.2581C48.758 24.1279 46.7635 19.3077 43.1401 15.6734C39.5168 12.039 34.6856 10.0444 29.5554 10.0444C18.9623 10.0444 10.3417 18.654 10.3417 29.2471C10.3417 32.8704 11.3499 36.4051 13.278 39.4632L13.7323 40.1946L11.7932 47.275L19.073 45.3581Z" fill="white"/>
<path d="M23.7823 19.5737C23.35 18.6097 22.8957 18.5874 22.4859 18.5764C22.1535 18.5653 21.7657 18.5653 21.3778 18.5653C20.99 18.5653 20.3694 18.7094 19.8376 19.2855C19.3056 19.8618 17.8208 21.2579 17.8208 24.1058C17.8208 26.9422 19.893 29.6902 20.181 30.0779C20.4691 30.4659 24.1811 36.4826 30.0427 38.7984C34.9182 40.7266 35.9155 40.3386 36.9681 40.2389C38.0318 40.1392 40.381 38.8428 40.8685 37.4909C41.3449 36.1391 41.3449 34.9867 41.2009 34.743C41.0568 34.4991 40.6691 34.3552 40.0928 34.067C39.5166 33.7789 36.68 32.3828 36.1482 32.1834C35.6163 31.984 35.2285 31.8953 34.8518 32.4714C34.4638 33.0475 33.3559 34.344 33.0234 34.7319C32.691 35.1197 32.3475 35.164 31.7712 34.876C31.1951 34.5879 29.3336 33.9783 27.1286 32.0061C25.4111 30.4769 24.2477 28.5821 23.9151 28.006C23.5827 27.4299 23.882 27.1193 24.1701 26.8315C24.4248 26.5765 24.7462 26.1555 25.0344 25.8231C25.3225 25.4907 25.4222 25.247 25.6105 24.859C25.7989 24.4713 25.7102 24.1389 25.5662 23.8508C25.4222 23.5626 24.292 20.7149 23.7823 19.5737Z" fill="white"/>
<defs>
<filter id="filter0_f" x="0" y="0" width="59" height="59.2019" filterUnits="userSpaceOnUse" color-interpolation-filters="sRGB">
<feFlood flood-opacity="0" result="BackgroundImageFix"/>
<feBlend mode="normal" in="SourceGraphic" in2="BackgroundImageFix" result="shape"/>
<feGaussianBlur stdDeviation="3" result="effect1_foregroundBlur"/>
</filter>
<linearGradient id="paint0_linear" x1="29.4602" y1="51.9481" x2="29.4602" y2="6.9391" gradientUnits="userSpaceOnUse">
<stop stop-color="#20B038"/>
<stop offset="1" stop-color="#60D66A"/>
</linearGradient>
</defs>
</svg>
